<?xml version="1.0" encoding="UTF-8" standalone="no"?>
<!-- Created with Inkscape (http://www.inkscape.org/) -->

<svg
   xmlns:dc="http://purl.org/dc/elements/1.1/"
   xmlns:cc="http://creativecommons.org/ns#"
   xmlns:rdf="http://www.w3.org/1999/02/22-rdf-syntax-ns#"
   xmlns:svg="http://www.w3.org/2000/svg"
   xmlns="http://www.w3.org/2000/svg"
   xmlns:sodipodi="http://sodipodi.sourceforge.net/DTD/sodipodi-0.dtd"
   xmlns:inkscape="http://www.inkscape.org/namespaces/inkscape"
   width="70mm"
   height="70mm"
   viewBox="0 0 248.03149 248.03149"
   id="svg4526"
   version="1.1"
   inkscape:version="0.91 r13725"
   sodipodi:docname="user_keys.svg">
  <defs
     id="defs4528" />
  <sodipodi:namedview
     id="base"
     pagecolor="#ffffff"
     bordercolor="#666666"
     borderopacity="1.0"
     inkscape:pageopacity="0.0"
     inkscape:pageshadow="2"
     inkscape:zoom="0.7"
     inkscape:cx="58.67429"
     inkscape:cy="37.84457"
     inkscape:document-units="px"
     inkscape:current-layer="layer1"
     showgrid="false"
     inkscape:window-width="1536"
     inkscape:window-height="801"
     inkscape:window-x="-8"
     inkscape:window-y="-8"
     inkscape:window-maximized="1" />
  <metadata
     id="metadata4531">
    <rdf:RDF>
      <cc:Work
         rdf:about="">
        <dc:format>image/svg+xml</dc:format>
        <dc:type
           rdf:resource="http://purl.org/dc/dcmitype/StillImage" />
        <dc:title></dc:title>
      </cc:Work>
    </rdf:RDF>
  </metadata>
  <g
     inkscape:label="Laag 1"
     inkscape:groupmode="layer"
     id="layer1"
     transform="translate(0,-804.33071)">
    <path
       style="opacity:1;fill:#030904;fill-opacity:1;fill-rule:nonzero;stroke:#000000;stroke-width:0.50507629;stroke-opacity:1"
       d="m 69.280583,1037.0027 c -2.2224,-0.2267 -4.7225,-0.6821 -5.5559,-1.012 -0.8334,-0.3299 -9.3384,-2.8569 -18.9001,-5.6157 -9.5617,-2.7588 -17.4523,-5.0834 -17.5347,-5.1657 -0.2391,-0.2392 2.2788,-42.51158 2.8639,-48.08135 2.2676,-21.58406 6.0483,-32.16101 14.8649,-41.58634 7.5909,-8.11487 14.9224,-11.77177 27.5448,-13.73911 5.5107,-0.85889 39.443297,-1.23111 47.620597,-0.52237 13.0001,1.12673 21.3056,3.10399 29.1231,6.93322 3.9457,1.93271 5.526,3.0883 9.1422,6.68524 9.4197,9.36932 13.7657,22.358 15.8544,47.38281 1.1656,13.96551 2.4884,42.5971 1.9903,43.0793 -0.9176,0.8884 -17.7367,5.5971 -23.3654,6.5414 -20.4406,3.4292 -70.257497,6.467 -83.648097,5.1006 z"
       id="path4293-4"
       inkscape:connector-curvature="0" />
    <ellipse
       style="opacity:1;fill:#000700;fill-opacity:1;fill-rule:nonzero;stroke:#000000;stroke-opacity:1"
       id="path4295-9"
       cx="99.819122"
       cy="877.38922"
       rx="40.658642"
       ry="38.327599" />
    <ellipse
       style="opacity:1;fill:#666666;fill-opacity:1;fill-rule:nonzero;stroke:#ffffff;stroke-width:7.51900005;stroke-miterlimit:4;stroke-dasharray:none;stroke-opacity:1"
       id="path4344-6"
       cx="187.79056"
       cy="952.69141"
       rx="52.857143"
       ry="50.714287" />
    <g
       id="g4172"
       transform="matrix(1,0,0,0.87060165,138.57143,325.08264)">
      <path
         d="m 47.788221,709.49674 c -3.985429,1.18244 -6.325429,5.89834 -5.312,10.548 0.840542,3.85634 3.739857,6.42901 6.973857,6.53318 l 5.718714,26.23666 -7.595571,2.2535 0.416314,1.91134 4.542571,-1.3476 0.379057,1.7375 -3.797857,1.12673 0.435329,1.99817 3.797857,-1.12669 0.359571,1.65064 -4.542428,1.34766 0.435757,1.99817 4.542429,-1.34767 0.397685,1.8245 -4.542428,1.3477 0.379043,1.7375 7.595714,-2.2535 2.680714,-0.7953 1.265943,-0.37601 -8.521429,-39.095 c 2.801,-1.90484 4.289715,-5.78051 3.451572,-9.62618 -1.013514,-4.64983 -5.074714,-7.46666 -9.060143,-6.28416 z m 0.9847,4.51767 c 1.861142,-0.55213 3.804285,0.72182 4.277714,2.89333 0.473286,2.17134 -0.712129,4.37367 -2.573286,4.92567 -1.861143,0.55227 -3.729857,-0.74395 -4.203143,-2.91533 -0.473314,-2.17134 0.637629,-4.3515 2.498857,-4.90367 z"
         inkscape:connector-curvature="0"
         style="color:#000000;fill:#e6e6e6"
         id="path8101" />
      <path
         d="m 53.913935,707.33674 c 3.879857,-1.59013 8.066714,0.82509 9.429714,5.35167 1.130443,3.754 -0.06284,7.76933 -2.706143,9.94533 l 7.691143,25.54168 7.394286,-3.03067 0.5603,1.86067 -4.422143,1.81233 0.509314,1.6915 3.697286,-1.5153 0.585686,1.94517 -3.697143,1.51533 0.483886,1.60693 4.422142,-1.81233 0.585815,1.94517 -4.422143,1.81233 0.534786,1.77617 4.422142,-1.8125 0.509315,1.6915 -7.394286,3.03066 -2.609857,1.06964 -1.232372,0.5054 -11.460285,-38.06 c -3.236429,0.22336 -6.315715,-2.04201 -7.443,-5.78568 -1.363029,-4.5265 0.681685,-9.49583 4.561571,-11.086 z m 1.324286,4.398 c -1.811858,0.74265 -2.825143,3.05884 -2.188715,5.17267 0.636557,2.11383 2.668857,3.18183 4.480715,2.43917 1.811857,-0.74259 2.752714,-3.02917 2.116142,-5.143 -0.636542,-2.11384 -2.596285,-3.2115 -4.408285,-2.46884 z"
         inkscape:connector-curvature="0"
         style="color:#000000;fill:#e6e6e6"
         id="path8099" />
      <path
         d="m 44.541078,707.54674 c -4.038,-0.90816 -7.875429,2.19817 -8.653857,6.90934 -0.645557,3.907 1.040242,7.67433 3.928714,9.37384 l -4.392285,26.58333 -7.695715,-1.73067 -0.3197,1.9365 4.602286,1.03507 -0.291114,1.7605 -3.847857,-0.8654 -0.334443,2.0245 3.847857,0.86535 -0.276386,1.6725 -4.602285,-1.03505 -0.334429,2.0245 4.602286,1.03502 -0.305843,1.8485 -4.602429,-1.03505 -0.291114,1.7605 7.695714,1.73066 2.716143,0.61087 1.282671,0.28858 6.544857,-39.61 c 3.229572,-0.33356 5.990143,-3.102 6.634,-6.99834 0.778372,-4.711 -1.869714,-9.276 -5.907714,-10.18416 z m -0.756243,4.57717 c 1.885714,0.42403 3.179571,2.5415 2.816,4.7415 -0.363457,2.2 -2.239429,3.6045 -4.125,3.1805 -1.885714,-0.42403 -3.104143,-2.5245 -2.740714,-4.7245 0.363457,-2.2 2.163857,-3.6215 4.049714,-3.1975 z"
         inkscape:connector-curvature="0"
         style="color:#000000;fill:#e6e6e6"
         id="path8075" />
      <path
         d="m 48.772506,668.56508 c -11.892428,0 -21.514285,11.22567 -21.514285,25.1 0,13.8745 9.622,25.19 21.514285,25.19 11.892429,0 21.591429,-11.31534 21.591429,-25.19 0,-13.8745 -9.698857,-25.1 -21.591429,-25.1 z m 0,4.751 c 9.635286,0 17.441429,9.10783 17.441429,20.34833 0,11.24117 -7.806714,20.34833 -17.441429,20.34833 -9.635285,0 -17.441428,-9.10783 -17.441428,-20.34833 0,-11.24133 7.806714,-20.34833 17.441428,-20.34833 z"
         inkscape:connector-curvature="0"
         style="color:#000000;fill:#e6e6e6"
         id="path8103" />
    </g>
  </g>
</svg>
